<svg width="18" height="18" viewBox="0 0 18 18" fill="none" xmlns="http://www.w3.org/2000/svg">
<path fill-rule="evenodd" clip-rule="evenodd" d="M8.96014 3.17578H2.64014C1.53514 3.17578 0.640137 4.12478 0.640137 5.29378V15.8818C0.640137 17.0518 1.53514 17.9998 2.64014 17.9998H13.6401C14.7451 17.9998 15.6401 17.0518 15.6401 15.8818V8.13178L11.7261 12.2758C11.3843 12.6413 10.9392 12.8938 10.4501 12.9998L7.76914 13.5678C6.01914 13.9378 4.47714 12.3048 4.82714 10.4528L5.36314 7.61378C5.46014 7.10178 5.69814 6.63078 6.04714 6.26178L8.96014 3.17578Z" fill="black"/>
<path fill-rule="evenodd" clip-rule="evenodd" d="M17.4861 1.31802C17.385 1.06205 17.2367 0.827321 17.0491 0.626018C16.8645 0.429147 16.6421 0.271654 16.3951 0.163019C16.1517 0.056155 15.8889 0.000976562 15.6231 0.000976562C15.3573 0.000976562 15.0944 0.056155 14.8511 0.163019C14.6041 0.271654 14.3816 0.429147 14.1971 0.626018L13.6511 1.20402L16.5031 4.22402L17.0491 3.64502C17.2387 3.44524 17.3872 3.21011 17.4861 2.95302C17.6921 2.42749 17.6921 1.84355 17.4861 1.31802ZM15.0901 5.72102L12.2371 2.70002L7.46008 7.76002C7.3896 7.83511 7.34207 7.92879 7.32308 8.03002L6.78708 10.87C6.71708 11.24 7.02608 11.566 7.37508 11.492L10.0571 10.925C10.1547 10.9033 10.2435 10.8528 10.3121 10.78L15.0901 5.72102Z" fill="black"/>
</svg>
